HIERARCHY
ROOT Hips
{
	OFFSET 0.000000 0.000000 0.000000
	CHANNELS 6 Xposition Yposition Zposition Zrotation Yrotation Xrotation 
	JOINT LHipJoint
	{
		OFFSET 0.000000 0.000000 0.000000
		CHANNELS 3 Zrotation Yrotation Xrotation
		JOINT LeftUpLeg
		{
			OFFSET 1.363060 -1.794630 0.839290
			CHANNELS 3 Zrotation Yrotation Xrotation
			JOINT LeftLeg
			{
				OFFSET 2.448110 -6.726130 0.000000
				CHANNELS 3 Zrotation Yrotation Xrotation
				JOINT LeftFoot
				{
					OFFSET 2.562200 -7.039590 0.000000
					CHANNELS 3 Zrotation Yrotation Xrotation
					JOINT LeftToeBase
					{
						OFFSET 0.157640 -0.433110 2.322550
						CHANNELS 3 Zrotation Yrotation Xrotation
						End Site
						{
							OFFSET 0.000000 0.000000 0.000000
						}
					}
				}
			}
		}
	}
	JOINT RHipJoint
	{
		OFFSET 0.000000 0.000000 0.000000
		CHANNELS 3 Zrotation Yrotation Xrotation
		JOINT RightUpLeg
		{
			OFFSET -1.305520 -1.794630 0.839290
			CHANNELS 3 Zrotation Yrotation Xrotation
			JOINT RightLeg
			{
				OFFSET -2.542530 -6.985550 0.000000
				CHANNELS 3 Zrotation Yrotation Xrotation
				JOINT RightFoot
				{
					OFFSET -2.568260 -7.056230 0.000000
					CHANNELS 3 Zrotation Yrotation Xrotation
					JOINT RightToeBase
					{
						OFFSET -0.164730 -0.452590 2.363150
						CHANNELS 3 Zrotation Yrotation Xrotation
						End Site
						{
							OFFSET 0.000000 0.000000 0.000000
						}
					}
				}
			}
		}
	}
}
MOTION
Frames: 24
Frame Time: 0.008333
-8.197195 16.866264 -1.791336 101.889670 87.345832 125.653787 -7.579016 1.971576 5.340914 -13.487368 -8.863572 -44.886464 -2.784534 0.358347 27.831137 1.487429 4.107210 -13.122656 -0.430900 0.000000 -46.559700 12.649022 -4.407829 0.336742 1.217899 -12.136472 -1.970613 0.119071 -1.346717 20.642494 -0.620575 13.458432 38.017683 9.685899 -0.000000 -72.048000
-7.970613 16.791637 -1.803133 106.950862 87.302902 130.128372 -7.694575 2.048145 5.202661 -13.488716 -8.829288 -44.604502 -2.610453 0.648463 30.536154 1.454282 3.957299 -13.504839 -0.479600 -0.000000 -44.742600 12.681484 -4.332128 0.109762 0.737283 -13.155287 -1.893600 0.015820 -1.405923 22.783597 -0.704960 13.318219 38.199801 9.652200 -0.000000 -70.781500
-7.743574 16.723930 -1.814469 111.390203 87.175331 134.021080 -7.809240 2.122211 5.090664 -13.543934 -8.835860 -44.134556 -2.459225 0.885982 32.958161 1.450216 3.914696 -14.062153 -0.552300 -0.000001 -42.582600 12.709491 -4.235824 -0.121225 0.191501 -14.197879 -2.008389 -0.092691 -1.467870 25.075808 -0.805168 12.643285 38.171893 9.221100 0.000000 -69.729399
-7.515561 16.665268 -1.824934 114.823313 86.974747 136.960914 -7.910478 2.192757 5.007188 -13.661936 -8.885875 -43.461358 -2.341677 1.062448 34.972649 1.476675 3.984508 -14.788221 -0.652000 -0.000000 -40.301400 12.739982 -4.120488 -0.347191 -0.409777 -15.217949 -2.324414 -0.202121 -1.535046 27.488468 -0.920317 11.430551 37.887779 8.390300 -0.000001 -68.888601
-7.286131 16.617382 -1.834389 117.081080 86.729058 138.787191 -7.989597 2.260022 4.950391 -13.840812 -8.966583 -42.587431 -2.263216 1.176049 36.505277 1.533044 4.160793 -15.664639 -0.782000 0.000000 -38.093899 12.776557 -3.988116 -0.557111 -1.041978 -16.159610 -2.841826 -0.308206 -1.609874 29.985428 -1.047309 9.731699 37.299256 7.204800 -0.000000 -68.185000
-7.054969 16.581465 -1.843192 118.235695 86.480778 139.577708 -8.047035 2.322827 4.915636 -14.056698 -9.049807 -41.533456 -2.223195 1.229450 37.527111 1.615913 4.426082 -16.656549 -0.943400 0.000000 -36.135800 12.814517 -3.843491 -0.738300 -1.656567 -16.957202 -3.554272 -0.407432 -1.694504 32.523275 -1.181340 7.644887 36.372062 5.751700 -0.000000 -67.530400
-6.822022 16.558043 -1.851314 118.296422 86.260217 139.335086 -8.082322 2.380995 4.894571 -14.297329 -9.112206 -40.304078 -2.218292 1.226454 38.029398 1.721244 4.766988 -17.709744 -1.135000 0.000000 -34.541300 12.852936 -3.689808 -0.884975 -2.231420 -17.570282 -4.442530 -0.497586 -1.791485 35.064297 -1.315868 5.331841 35.084344 4.167800 0.000000 -66.769300
-6.587273 16.547086 -1.859518 117.466311 86.108027 138.259752 -8.107011 2.430701 4.879562 -14.519899 -9.119113 -38.928411 -2.239973 1.173005 38.041282 1.840760 5.155342 -18.760296 -1.349400 -0.000000 -33.363300 12.880879 -3.536725 -0.988260 -2.709346 -17.950331 -5.489913 -0.577746 -1.901582 37.562910 -1.444997 2.947610 33.459743 2.586800 -0.000000 -65.891400
-6.350941 16.548050 -1.867893 115.759922 86.041320 136.355982 -8.127472 2.470442 4.862443 -14.703768 -9.051370 -37.417505 -2.279406 1.074909 37.598891 1.966095 5.572317 -19.734341 -1.575000 0.000000 -32.598200 12.895890 -3.390770 -1.047014 -3.072280 -18.085330 -6.674811 -0.647984 -2.025060 39.986466 -1.562165 0.659720 31.537122 1.140900 0.000000 -64.786000
-6.113212 16.559896 -1.876886 113.243838 86.073775 133.683682 -8.155338 2.497709 4.837048 -14.818271 -8.889847 -35.795671 -2.325865 0.939462 36.760536 2.086236 5.992576 -20.558244 -1.795000 0.000000 -32.209200 12.891927 -3.260484 -1.060122 -3.290800 -17.971023 -7.978795 -0.708887 -2.159885 42.301001 -1.662899 -1.414215 29.390709 -0.083800 -0.000000 -63.510600
-5.874305 16.581326 -1.886620 109.906548 86.202486 130.224625 -8.200265 2.511624 4.799270 -14.844545 -8.625794 -34.086316 -2.369595 0.774842 35.592743 2.190311 6.394198 -21.165642 -1.989800 -0.000000 -32.141500 12.865651 -3.151874 -1.030639 -3.352856 -17.627208 -9.384167 -0.760727 -2.303198 44.481906 -1.743401 -3.194951 27.096673 -1.042700 -0.000000 -62.055500
-5.634430 16.610816 -1.897183 105.743614 86.416122 125.971680 -8.273274 2.512128 4.747559 -14.766255 -8.254196 -32.320691 -2.402121 0.590454 34.172350 2.267673 6.753329 -21.505041 -2.139700 -0.000000 -32.341000 12.811912 -3.069453 -0.961935 -3.246085 -17.082646 -10.873736 -0.803515 -2.449957 46.500266 -1.803821 -4.663992 24.755586 -1.741100 -0.000000 -60.723500
-5.393762 16.646812 -1.908345 100.698125 86.688929 120.864078 -8.381510 2.501830 4.682778 -14.583306 -7.779738 -30.526849 -2.418240 0.396183 32.573106 2.310306 7.050780 -21.543403 -2.228100 0.000000 -32.762500 12.727841 -3.013594 -0.862006 -2.978719 -16.388637 -12.432815 -0.836261 -2.596434 48.343377 -1.843081 -5.821022 22.423745 -2.203200 -0.000000 -59.455300
-5.152400 16.687822 -1.919701 94.750635 86.990319 114.880793 -8.530844 2.485227 4.607781 -14.302751 -7.210711 -28.734974 -2.415770 0.202102 30.865413 2.312928 7.268813 -21.269015 -2.243800 0.000000 -33.377600 12.609774 -2.981433 -0.738983 -2.562629 -15.599302 -14.044692 -0.858159 -2.737429 49.991971 -1.863870 -6.703608 20.166590 -2.476100 0.000000 -58.489300
-4.910434 16.732539 -1.930697 87.956516 87.288225 108.074772 -8.723496 2.469340 4.527305 -13.939978 -6.560331 -26.973776 -2.395757 0.017741 29.109573 2.273724 7.393667 -20.689874 -2.182700 -0.000000 -34.173900 12.455668 -2.966432 -0.602782 -2.019233 -14.774870 -15.694434 -0.868466 -2.868264 51.435356 -1.868550 -7.354173 18.012983 -2.605699 0.000000 -57.867200
-4.667879 16.779845 -1.940758 80.541560 87.559643 100.669562 -8.958405 2.463154 4.446682 -13.511664 -5.841662 -25.270222 -2.361683 -0.148455 27.355515 2.193752 7.413392 -19.831737 -2.047800 -0.000000 -35.153400 12.265400 -2.959809 -0.463671 -1.369417 -13.972679 -17.367151 -0.866587 -2.984207 52.666634 -1.859364 -7.816151 15.960533 -2.631099 0.000000 -57.459600
-4.424782 16.828919 -1.949291 72.916801 87.794262 93.073387 -9.228855 2.476502 4.371399 -13.034636 -5.070948 -23.647384 -2.318356 -0.290011 25.640170 2.077170 7.322541 -18.730961 -1.849000 0.000001 -36.329300 12.043587 -2.950713 -0.330227 -0.634141 -13.238788 -19.047293 -0.852429 -3.080079 53.677124 -1.839974 -8.135408 14.004210 -2.586500 -0.000001 -57.368300
-4.181102 16.879149 -1.955674 65.697961 87.994454 85.898886 -9.519813 2.518792 4.306960 -12.529350 -4.273248 -22.119249 -2.270864 -0.403354 23.985552 1.931214 7.126577 -17.426964 -1.601700 0.000000 -37.719400 11.802488 -2.927756 -0.208749 0.161485 -12.608781 -20.720111 -0.825706 -3.151865 54.457492 -1.814156 -8.348883 12.139225 -2.496700 0.000000 -57.618300
-3.936835 16.930082 -1.959555 59.672053 88.183615 79.931524 -9.814631 2.594135 4.256913 -12.004940 -3.471836 -20.698402 -2.222813 -0.487926 22.410358 1.763512 6.831228 -15.960077 -1.323399 0.000000 -39.345800 11.556277 -2.885887 -0.102693 1.004382 -12.104729 -22.375713 -0.783745 -3.199724 55.007105 -1.783298 -8.475907 10.326993 -2.372400 -0.000000 -58.022300
-3.691854 16.981411 -1.960670 55.861021 88.392739 76.193795 -10.094050 2.700588 4.223564 -11.470775 -2.698219 -19.390213 -2.175904 -0.546682 20.925971 1.582701 6.451250 -14.363862 -1.032100 -0.000000 -41.224400 11.321103 -2.826065 -0.011101 1.880713 -11.733857 -24.008180 -0.722260 -3.227791 55.324205 -1.749019 -8.527790 8.544906 -2.220500 0.000000 -58.503900
-3.446067 17.032848 -1.959124 55.954373 88.663039 76.377586 -10.342193 2.828732 4.205841 -10.922394 -1.976974 -18.200175 -2.129267 -0.584919 19.548026 1.395536 5.996380 -12.666318 -0.743700 -0.000000 -43.361899 11.109477 -2.759327 0.071083 2.791074 -11.488122 -25.615879 -0.634021 -3.245246 55.412805 -1.711222 -8.502017 6.757225 -2.041100 0.000001 -58.762500
-3.199359 17.084077 -1.954952 64.931866 89.043114 85.466891 -10.518124 2.969852 4.198956 -10.349463 -1.339268 -17.125590 -2.080282 -0.610390 18.287528 1.209190 5.485209 -10.886168 -0.471300 -0.000000 -45.739800 10.956266 -2.697371 0.155505 3.740727 -11.347481 -27.200440 -0.509757 -3.266006 55.274111 -1.670642 -8.394791 4.956435 -1.836500 -0.000001 -58.720400
-2.951616 17.134781 -1.948429 100.306396 89.620158 120.978606 -10.473681 3.181853 4.198069 -9.681376 -0.774893 -16.183083 -2.031801 -0.610468 17.140578 1.034569 4.950748 -9.051545 -0.224700 0.000000 -48.315299 10.998654 -2.567749 0.257032 4.799812 -11.228454 -28.741421 -0.356322 -3.273534 54.917698 -1.625162 -8.196494 3.140154 -1.609500 -0.000000 -58.244001
-2.702795 17.184489 -1.939718 -27.426247 89.701412 -6.585510 -10.537245 3.577418 4.298128 -9.068639 -0.227183 -15.431642 -2.005797 -0.502995 15.998729 0.893245 4.524381 -7.186062 -0.009600 0.000000 -51.017400 10.942809 -2.159068 0.308039 5.807385 -10.921955 -30.206478 -0.287100 -3.092980 54.459749 -1.564245 -7.868979 1.330694 -1.368200 -0.000000 -57.433501
